<svg enable-background="new 0 0 24 24" height="512" viewBox="0 0 24 24" width="512" xmlns="http://www.w3.org/2000/svg"><path d="m23.5 24h-23c-.276 0-.5-.224-.5-.5v-11c0-.276.224-.5.5-.5h23c.276 0 .5.224.5.5v11c0 .276-.224.5-.5.5zm-22.5-1h22v-10h-22z"/><path d="m12 7c-1.103 0-2-.897-2-2 0-.93.639-1.714 1.5-1.937v-2.563c0-.276.224-.5.5-.5s.5.224.5.5v3c0 .276-.224.5-.5.5-.552 0-1 .449-1 1s.448 1 1 1 1-.449 1-1c0-.276.224-.5.5-.5s.5.224.5.5c0 1.103-.897 2-2 2z"/><path d="m23.5 13c-.098 0-.196-.028-.283-.088l-8.5-5.83c-.228-.156-.285-.467-.129-.695s.467-.285.695-.129l8.5 5.83c.228.156.285.467.129.695-.097.141-.253.217-.412.217z"/><path d="m.5 13c-.159 0-.315-.076-.412-.217-.156-.228-.099-.539.129-.695l8.5-5.83c.229-.156.54-.099.695.129.156.228.099.539-.129.695l-8.5 5.83c-.087.06-.185.088-.283.088z"/><path d="m3.5 22c-.276 0-.5-.224-.5-.5v-7c0-.276.224-.5.5-.5s.5.224.5.5v7c0 .276-.224.5-.5.5z"/><path d="m7.5 22c-.276 0-.5-.224-.5-.5v-7c0-.276.224-.5.5-.5s.5.224.5.5v7c0 .276-.224.5-.5.5z"/><path d="m12 22c-.276 0-.5-.224-.5-.5v-7c0-.276.224-.5.5-.5s.5.224.5.5v7c0 .276-.224.5-.5.5z"/><path d="m16.5 22c-.276 0-.5-.224-.5-.5v-7c0-.276.224-.5.5-.5s.5.224.5.5v7c0 .276-.224.5-.5.5z"/><path d="m20.5 22c-.276 0-.5-.224-.5-.5v-7c0-.276.224-.5.5-.5s.5.224.5.5v7c0 .276-.224.5-.5.5z"/></svg>